<svg xmlns="http://www.w3.org/2000/svg" viewBox="0 0 177.85 177.87"><path d="M88.77,177.87c-49.1,0-87.48-39.59-88.74-86.29a88.93,88.93,0,1,1,177.82-2.09C177.63,138.4,137.7,178.13,88.77,177.87ZM41.09,78.44a12.26,12.26,0,0,0-11.38,6.7c-2.37,4.33-1.6,10.64,1.85,14.11,11,11,22,22,33,33A12.35,12.35,0,0,0,82,132.11q32.34-32.36,64.68-64.69a12.26,12.26,0,0,0,3.69-9.89,12.49,12.49,0,0,0-12-11.4,13.36,13.36,0,0,0-10.1,4.23Q101.81,76.8,75.38,103.2c-.38.38-.79.74-1.13,1.15-.76.9-1.45.8-2.15,0-.22-.26-.48-.48-.72-.72Q60.75,93,50.1,82.32A12.38,12.38,0,0,0,41.09,78.44Z"/></svg>
