<svg xmlns="http://www.w3.org/2000/svg" viewBox="0 0 709.41 181.91"><path  d="M82.86,0V50.3a39.42,39.42,0,0,0-31-12.52,54.18,54.18,0,0,0-26.49,6.53A46.86,46.86,0,0,0,6.74,63a62,62,0,0,0,0,56.24A47.18,47.18,0,0,0,25.33,138a53.61,53.61,0,0,0,26.49,6.52A39.62,39.62,0,0,0,84.19,131v12h28.7V0h-30ZM57.05,119.87A25.41,25.41,0,0,1,38,112.06a32.85,32.85,0,0,1,0-41.8,26.94,26.94,0,0,1,38,0,32.82,32.82,0,0,1,0,41.8A25.18,25.18,0,0,1,57,119.87h0Zm159.5-80.54-29.28,70.32L158.18,39.33h-31L172,143.74l-.39,1a25.34,25.34,0,0,1-6.95,9.9,15.65,15.65,0,0,1-10,3,25.43,25.43,0,0,1-9-1.72,26.58,26.58,0,0,1-8-4.81l-11,21.35a34.59,34.59,0,0,0,12.9,7,53,53,0,0,0,16,2.51A43.32,43.32,0,0,0,181,174.56a54,54,0,0,0,17.62-25.26l46.82-110H216.55ZM293,144.48a74.47,74.47,0,0,0,26.3-4.12,37,37,0,0,0,16.86-11.66A27.37,27.37,0,0,0,342,111.57a24.81,24.81,0,0,0-6-17.71,30.89,30.89,0,0,0-14.06-8.77,182.44,182.44,0,0,0-20.81-4.55,90.66,90.66,0,0,1-16.59-3.64,6.9,6.9,0,0,1-5.2-6.75,8,8,0,0,1,4.82-7,30.83,30.83,0,0,1,14.45-2.68,59.84,59.84,0,0,1,29.86,7.71l10-21.41a60.79,60.79,0,0,0-18-6.63,100.5,100.5,0,0,0-21.86-2.41A70.46,70.46,0,0,0,272.88,42a36.58,36.58,0,0,0-16.59,11.88,28.22,28.22,0,0,0-5.68,17.39,25.2,25.2,0,0,0,6.07,18.14A32.48,32.48,0,0,0,271,98.25a147.37,147.37,0,0,0,21,4.44A78.52,78.52,0,0,1,308,106a6.72,6.72,0,0,1,5.2,6.37q0,9.48-19.07,9.47A69.81,69.81,0,0,1,274.88,119a60.37,60.37,0,0,1-16.76-7.23l-10,21.62a66.61,66.61,0,0,0,19.65,8A100,100,0,0,0,293,144.48h0Zm118.67,0A61.71,61.71,0,0,0,441,137.69a51.4,51.4,0,0,0,20.22-19,55.54,55.54,0,0,0,0-55.12A50.91,50.91,0,0,0,441,44.63a66.26,66.26,0,0,0-58.67,0A50.79,50.79,0,0,0,362,63.57a55.54,55.54,0,0,0,0,55.12,51.28,51.28,0,0,0,20.33,19,62.21,62.21,0,0,0,29.38,6.79Zm0-24.61a25.38,25.38,0,0,1-19.07-7.82,32.81,32.81,0,0,1,0-41.79,25.18,25.18,0,0,1,19.07-7.81,24.88,24.88,0,0,1,19,7.81,33.14,33.14,0,0,1,0,41.79,25.07,25.07,0,0,1-19,7.82ZM553.51,37.78a51,51,0,0,0-19.45,3.58,39.45,39.45,0,0,0-14.84,10.12V39.33h-28.7V143h30.05V91.72a29.22,29.22,0,0,1,6.74-20.92,24,24,0,0,1,18.11-7,19.93,19.93,0,0,1,15.61,6,27.15,27.15,0,0,1,5.39,18.41V143h30.05V83.64q0-22.73-11.84-34.31a42.67,42.67,0,0,0-31.12-11.55Zm106.92,106.7a74.47,74.47,0,0,0,26.3-4.12,37,37,0,0,0,16.86-11.66,27.3,27.3,0,0,0,5.77-17.13,24.76,24.76,0,0,0-6-17.71,30.91,30.91,0,0,0-14.06-8.78,186.83,186.83,0,0,0-20.81-4.55,89.82,89.82,0,0,1-16.59-3.63,6.9,6.9,0,0,1-5.2-6.75,8,8,0,0,1,4.82-7A30.71,30.71,0,0,1,666,60.52a59.84,59.84,0,0,1,29.86,7.71l10-21.41a60.79,60.79,0,0,0-18-6.63A100.5,100.5,0,0,0,666,37.78,70.46,70.46,0,0,0,640.28,42a36.5,36.5,0,0,0-16.59,11.88A28.22,28.22,0,0,0,618,71.28a25.2,25.2,0,0,0,6.07,18.14,32.48,32.48,0,0,0,14.35,8.83,147.37,147.37,0,0,0,21,4.44,77.85,77.85,0,0,1,16,3.26,6.72,6.72,0,0,1,5.2,6.37q0,9.48-19.07,9.47A69.81,69.81,0,0,1,642.28,119a60.37,60.37,0,0,1-16.76-7.23l-10,21.62a66.58,66.58,0,0,0,19.65,8,99.55,99.55,0,0,0,25.24,3.16h0Z"/></svg>
