<svg xmlns="http://www.w3.org/2000/svg" viewBox="0 0 415.9 415.71"><defs><style>.cls-1{fill:#612bb4;}</style></defs><g id="Layer_2" data-name="Layer 2"><g id="Layer_1-2" data-name="Layer 1"><g id="PAY"><path class="cls-1" d="M206.83,415.67c-41.91,0-83.82-.15-125.73,0C42,415.9,6.46,384.49,1,346.91a92.15,92.15,0,0,1-.94-13.39Q0,215.79,0,98C0,70.65,11.4,48.88,32.64,32.19A73.64,73.64,0,0,1,80.26,15.86c10.81.14,21.62-.09,32.43.1,6.73.13,11,4.24,13.76,10S129,37.28,125,42.35a15.34,15.34,0,0,1-12.56,6.07c-9.81,0-19.63-.25-29.43.06-9,.29-17.92,1.69-25.91,6.26-14.33,8.18-22.77,20.65-23.61,37-1,20.08-.94,40.22-1,60.33q-.11,86.07.15,172.14c0,7.27.05,14.79,1.82,21.76,4.9,19.24,17.71,31.05,36.9,35.9a27.41,27.41,0,0,0,6,.56c13.13.28,26.25.72,39.38.73q93.55.07,187.1-.07c10.31,0,20.61-.36,30.91-.57,9.93-.19,16.49-6.64,16.57-16.63.12-14,.05-27.94,0-41.91,0-4-.09-4.09-4.22-4.11-13.14,0-26.28,0-39.42,0-6.15,0-12.31,0-18.46,0-22.35-.12-40.11-9.54-53.49-27.14C217.11,268.3,221,235,238.63,214.22c11.74-13.86,26.78-21.63,45-22.61,9.95-.53,19.93-.59,29.9-.62q39.42-.11,78.83,0a62,62,0,0,1,7.47.28c10.61,1.29,15.9,7.31,15.92,18q0,17.46,0,34.93c0,19.45-.37,38.92.15,58.37.25,9.53-8.49,18.31-17.67,17.42a91.4,91.4,0,0,0-10.47,0c-3.83.06-3.86.11-3.94,3.9-.06,2.66,0,5.32,0,8,0,11.81-.22,23.63,0,35.43.53,23.7-20.65,48.53-48.3,48.49Q271.18,415.57,206.83,415.67Zm125-128.91q23.17,0,46.36,0c4.92,0,5-.06,5-5q0-26.43,0-52.84c0-4.81,0-4.85-5-4.85q-44.87,0-89.72,0a31.13,31.13,0,0,0-7.86,1c-17.69,4.66-29.63,24-22.06,41.58,5.36,12.47,14.93,19.78,28.93,20C302.3,286.9,317.09,286.76,331.88,286.76Z"/><path class="cls-1" d="M383.77,134.39c0,3.65.14,7.32,0,11-.36,7.79-7,14-15.62,14.66a14.69,14.69,0,0,1-15.76-12.24,59,59,0,0,1-.86-8.4c-.17-3.65,0-7.32-.17-11-.51-9.67-7.1-16-16.81-16.09-7-.08-14,0-20.95,0q-115.23,0-230.48,0c-3.53,0-7-.12-10.13-2-5.91-3.46-9.5-8.43-9-15.47A15.53,15.53,0,0,1,74.23,80.77C86,76.08,97.74,71.57,109.52,67q57-21.93,114-43.82C242.25,16,261.11,9,279.76,1.52,291-3,300.47,3.1,304,12.19c8,21,16.57,41.69,24.9,62.52,2,4.93,2,5.15,7.07,5,20.46-.6,43.2,16.06,47.42,40.74.77,4.52.11,9.29.11,13.93ZM172.08,78.32l.13.83h44.14l72.78,0c6,0,6,0,3.74-5.76q-6.33-16-12.69-31.93c-1.64-4.1-1.13-4.35-6-2.46q-43.9,17-87.86,33.77C181.54,74.55,176.82,76.45,172.08,78.32Z"/></g></g></g></svg>