<svg xmlns="http://www.w3.org/2000/svg" viewBox="0 0 180.78 224.17"><path d="M121.42,14a15.53,15.53,0,0,1,11.9,5.18l31,37.25a10.1,10.1,0,0,1,2.47,6.51V198.48c0,6.45-6.44,11.69-14.37,11.69h-124c-7.92,0-14.37-5.24-14.37-11.69V25.69C14,19.25,20.45,14,28.37,14h93.05m0-14h-93C12.7,0,0,11.5,0,25.69V198.48c0,14.19,12.7,25.69,28.37,25.69h124c15.67,0,28.37-11.5,28.37-25.69V62.94a24.15,24.15,0,0,0-5.71-15.47l-31-37.24A29.47,29.47,0,0,0,121.42,0Z"/><path d="M41.56,98h12.3a25.86,25.86,0,0,1,6.43.66A11.92,11.92,0,0,1,65,101.22a12.94,12.94,0,0,1,4.31,10.21q0,6-3.49,9.44c-2.49,2.5-6.07,3.74-10.71,3.74H49.8v15.67H41.56Zm8.24,7.1v12.42h3.36a9,9,0,0,0,5.39-1.33,5.9,5.9,0,0,0,2.28-4.94,5.63,5.63,0,0,0-2.34-4.82q-1.91-1.33-5.84-1.33Z"/><path class="cls-2" d="M77,98H88a39.61,39.61,0,0,1,8.75.85,18.51,18.51,0,0,1,7,3.27,19.8,19.8,0,0,1,6,7.35,22.29,22.29,0,0,1,2.12,9.7q0,11.1-8.5,17.06a19.84,19.84,0,0,1-7,3.23,38,38,0,0,1-8.5.83H77Zm8.24,7.1v28.08h2.54q6.47,0,10.33-2.78A12,12,0,0,0,102,125.6a15.61,15.61,0,0,0,0-12.81,12.73,12.73,0,0,0-3.83-4.91q-3.75-2.79-10.4-2.79Z"/><path d="M143.51,98v7.1h-14.2v9.44h13.31v7.11H129.31v18.64h-8.25V98Z"/></svg>
