<svg xmlns="http://www.w3.org/2000/svg" viewBox="0 0 374.23 374.23"><path d="M281.48,121a.63.63,0,0,1,0-.9q8.07-10.21,16.72-19.93T316.09,81.2L363.3,34a7.51,7.51,0,0,0,2.19-6.29L364.83,23s-.83-2.35.11-3.29l6.87-6.87A7.6,7.6,0,0,0,372.18,2a7.6,7.6,0,0,0-10.74.38l-6.87,6.87c-.94.94-3.29.11-3.29.11l-4.75-.66a7.51,7.51,0,0,0-6.29,2.19L293,58.14a447.21,447.21,0,0,1-38.87,34.59.63.63,0,0,1-.9,0,2.94,2.94,0,0,0-4.15.15L39.36,302.65l-3.8,3.8-.33.33.24.25-1.42,10.05a8.37,8.37,0,0,0,.92,5,7.51,7.51,0,0,0-.65.62l-31,37.06C0,363.46-1,368,1.12,370.07l3,3c2.12,2.12,6.61,1.15,10.31-2.23l37.06-31c.23-.21.43-.43.63-.64a8.39,8.39,0,0,0,5,.91l10.05-1.42.25.24.33-.33,3.8-3.8L281.33,125.12A2.94,2.94,0,0,0,281.48,121ZM11.91,367.82l-.07.05-.07.05c-2.2,2-4.28,2.44-4.86,2.29L4,367.32c-.15-.58.26-2.66,2.29-4.86l.05-.07,0-.07,30.92-37,.15-.15L49,336.75l-.15.15ZM56.85,335.9a4.66,4.66,0,0,1-3.78-1.44l-13.3-13.3a4.66,4.66,0,0,1-1.44-3.78l.93-6.57L63.42,335Zm15.36-54.79L93.12,302,67.45,327.69,46.54,306.78ZM96,299.19,75,278.28,226.3,127l20.9,20.91ZM272.12,123,250,145.11,229.12,124.2l22.09-22.09Zm85.19-96,.21,1.49L310.43,75.54c-1.66,1.67-3.32,3.36-5,5l-34.83,29.64-5.14-5.14Zm-81.94,88h0l-2.6-2.6L289,98.58Q282,106.62,275.37,114.94Zm73.31-97.82L326.48,36l19.29-19.3Zm-50,46.68,5.12-5.13.28.33,48.49-41.26a12.73,12.73,0,0,0,1.64,0L356.54,20a12.38,12.38,0,0,0,.18,3.52L263.37,103l-4.09-4.09h0A457.64,457.64,0,0,0,298.69,63.8Z" transform="translate(0 0)"/><path d="M191.92,169.93a9.38,9.38,0,0,0-.7,3.57,9.49,9.49,0,0,0,9.51,9.51,9.38,9.38,0,0,0,3.57-.7,7.2,7.2,0,0,0,.85-.39,9.73,9.73,0,0,0,2.3-1.69l12.38-12.39a9.5,9.5,0,1,0-13.44-13.44L194,166.78a9.73,9.73,0,0,0-1.69,2.3A7.2,7.2,0,0,0,191.92,169.93Zm17.3-12.7A5.5,5.5,0,1,1,217,165l-6.91,6.91a9.44,9.44,0,0,0-7.78-7.79Zm-4.6,12.38a5.51,5.51,0,0,1,0,7.79,5.44,5.44,0,0,1-1.33,1,5.51,5.51,0,0,1-7.44-7.44,5.44,5.44,0,0,1,1-1.33A5.53,5.53,0,0,1,204.62,169.61Z" transform="translate(0 0)"/><path d="M182.82,191.41a9.5,9.5,0,1,0,0,13.44A9.51,9.51,0,0,0,182.82,191.41ZM172.21,202a5.5,5.5,0,1,1,7.78,0A5.5,5.5,0,0,1,172.21,202Z" transform="translate(0 0)"/></svg>
