<svg xmlns="http://www.w3.org/2000/svg" viewBox="0 0 439.65 383.81"><g id="Layer_2" data-name="Layer 2"><g id="Layer_1-2" data-name="Layer 1"><path d="M28,359V77.08c0-15,.16-29.94,0-44.9C27.78,14.8,42.62,0,60,.09c25.11.17,50.23,0,75.34.06,7.36,0,12.14,4.09,12.83,10.62.82,7.82-4.21,13.59-12.24,13.68-11.47.14-22.95.06-34.42.06-12.81,0-25.63.3-38.42-.1C55.83,24.18,52.3,29,52.32,35c.18,59.21.1,118.42.1,177.63q0,66.61,0,133.22c0,1.5,0,3,0,4.49.23,5.76,3.33,8.94,9,9.1,4.16.11,8.32,0,12.48,0H375.79c1,0,2,0,3,0,5.16-.32,8.34-3.39,8.51-8.56s0-10.31,0-15.46q0-149.94.1-299.88c0-7.73-4.35-11.15-11.24-11.11-35.6.22-71.19.1-106.78.11-1,0-2,0-3,0-1.68,0-2.4.88-2.4,2.48,0,1.33,0,2.66,0,4,0,18.8,0,37.59,0,56.38,0,6.46-2.79,10.56-8.17,12.31a14.81,14.81,0,0,1-4.4.62c-21.13,0-42.25,0-63.37.1a12.73,12.73,0,0,1-12.4-12.76c.3-24.78.07-49.57.1-74.35,0-8.52,4.75-13.19,13.36-13.2q60.87,0,121.74,0c22.62,0,45.25.33,67.86-.11C392-.26,407.33,8.68,411,25.23a46.65,46.65,0,0,1,.74,9.9q.07,60.37,0,120.74,0,94.07,0,188.11c0,4.95,0,9.91,0,15.43,5.09,0,10.54-.12,16,0,7.43.2,12.35,5.68,11.93,13.05a11.74,11.74,0,0,1-10.72,11.22c-1.65.16-3.32.09-5,.09H15.3c-1.33,0-2.67,0-4,0C6,383.38,2.12,380.51.67,375.43s-.72-9.54,3.4-13.2a11.65,11.65,0,0,1,8.26-2.83c5,.06,10,0,15-.11A1.75,1.75,0,0,0,28,359Z"/><path d="M140.13,299.55q27.44,0,54.88,0c5,0,9.15,1.55,11.61,6.21,4.56,8.61-1.13,18.06-11.09,18.13-17.79.13-35.58.06-53.38.06H86.78c-1.16,0-2.33.06-3.49,0A11.74,11.74,0,0,1,72,311.77c.08-6.84,4.58-11.94,11.29-12.14,8.64-.26,17.3-.1,25.94-.11h30.93Z"/><path d="M106.1,264c-7.32,0-14.64.13-21.95,0-10.14-.21-15.59-10.29-10.3-18.87a10.85,10.85,0,0,1,9.55-5.42c15.13-.1,30.26-.18,45.39,0,6.72.08,11.47,5.38,11.43,12,0,7.07-4.65,12.1-11.68,12.29-7.47.19-15,0-22.44,0Z"/></g></g></svg>