<svg xmlns="http://www.w3.org/2000/svg" viewBox="0 0 143.48 143.53"><path d="M110.76,111a16,16,0,0,1,16.3,16.28A16.34,16.34,0,1,1,110.76,111Zm4.56,16.3a4.56,4.56,0,0,0-4.54-4.66,4.48,4.48,0,0,0-4.61,4.55,4.53,4.53,0,0,0,4.51,4.68A4.61,4.61,0,0,0,115.32,127.31Z"/><path d="M55.29,111c8.32-.33,16.3,7,16.26,16.33a16.55,16.55,0,0,1-16.3,16.19A16.36,16.36,0,0,1,38.91,127.2,16.08,16.08,0,0,1,55.29,111Zm-.06,20.9c2.75-.27,4.61-1.87,4.62-4.65s-1.88-4.48-4.61-4.62a4.69,4.69,0,0,0-4.67,4.62A4.81,4.81,0,0,0,55.23,131.91Z"/><path d="M141.24,30.31a5.66,5.66,0,0,0-3.78-1.23c-7,0-14,0-20.92,0q-39.45,0-78.9,0c-2,0-2,0-2.26-1.63-.76-4.41-1.48-8.84-2.24-13.25-.55-3.2-1.08-6.4-1.74-9.57A5.61,5.61,0,0,0,25.7,0c-1.47,0-2.95,0-4.43,0h0L20.9,0C18.19,0,4.1,0,1.39,0,.45,0,0,.27,0,1.3c0,3,0,6,0,9,0,.9.34,1.27,1.25,1.26,2.61,0,15.3,0,19.09,0a1.87,1.87,0,0,0,.44.29c.16.08.15.54.2.83.58,3.25,1.17,6.5,1.73,9.75q2.23,12.9,4.46,25.8,2.2,12.63,4.41,25.26,2.37,13.77,4.72,27.55c.71,4.17,3.62,5.64,6.74,5.61,12.88-.1,25.77,0,38.65,0H95.52q12.67,0,25.35,0a5.72,5.72,0,0,0,6-4.53c.11-.4.22-.8.32-1.2L135.85,66q3.71-14.86,7.42-29.72A5.51,5.51,0,0,0,141.24,30.31ZM128.33,48.44q-5.61,22.41-11.23,44.81c-.46,1.8-.46,1.81-2.34,1.81H49.17c-.3,0-.59,0-.89,0-.76,0-1.15-.23-1.29-1.07-.67-4.13-1.41-8.25-2.13-12.37q-2-11.59-4-23.18-1.49-8.44-3-16.9a3.79,3.79,0,0,1,.06-.77h92.3C129.56,43.42,129,45.94,128.33,48.44Z"/></svg>
