<svg xmlns="http://www.w3.org/2000/svg" viewBox="0 0 338.51 338.51"><rect x="98.24" y="212.47" width="4" height="51.6" transform="translate(-139.12 140.67) rotate(-45)"/><path d="M319.62,110.08A64.48,64.48,0,1,0,211.27,79.31L34.17,256.41a9.9,9.9,0,0,0,0,14l4.62,4.63L3.3,314.92c-3.81,4.28-4.4,9.94-1.35,13l8.64,8.64c3.05,3.05,8.71,2.46,13-1.35l39.87-35.49,4.62,4.62a9.9,9.9,0,0,0,14,0L259.2,127.23A64.41,64.41,0,0,0,319.62,110.08ZM19.6,330.72c-2.18,1.95-4.36,2-4.77,1.59l-8.64-8.64c-.4-.4-.35-2.58,1.59-4.76L43,279.3l16.17,16.17Zm56.84-32a1.9,1.9,0,0,1-2.7,0L39.83,264.77a1.9,1.9,0,0,1,0-2.7L214,87.94a64.49,64.49,0,0,0,36.61,36.61ZM234.09,104.42a56.48,56.48,0,1,1,79.87,0A56.53,56.53,0,0,1,234.09,104.42Z" transform="translate(0)"/><path d="M309.07,29.44a49.56,49.56,0,1,0,0,70.09A49.55,49.55,0,0,0,309.07,29.44ZM241.81,96.7a45.56,45.56,0,1,1,64.43,0A45.61,45.61,0,0,1,241.81,96.7Z" transform="translate(0)"/><path d="M295.47,43a30.33,30.33,0,1,0,0,42.89A30.33,30.33,0,0,0,295.47,43ZM256.82,81.68a24.33,24.33,0,1,1,34.41,0A24.36,24.36,0,0,1,256.82,81.68Z" transform="translate(0)"/><path d="M197,128l-12.39,12.38a9.53,9.53,0,0,0-1.69,2.3,7.2,7.2,0,0,0-.39.85A9.5,9.5,0,0,0,195,155.94a6.4,6.4,0,0,0,.84-.39,9.36,9.36,0,0,0,2.31-1.7l12.38-12.38A9.5,9.5,0,0,0,197,128Zm-3.1,24a5.51,5.51,0,0,1-7.44-7.44,5.44,5.44,0,0,1,1-1.33,5.51,5.51,0,1,1,7.79,7.79A6.16,6.16,0,0,1,193.94,152Zm13.71-13.37-6.91,6.91a9.44,9.44,0,0,0-7.79-7.78l6.91-6.91a5.5,5.5,0,0,1,7.79,7.78Z" transform="translate(0)"/><path d="M173.47,178.48a9.5,9.5,0,1,0-13.44,0A9.51,9.51,0,0,0,173.47,178.48Zm-10.61-10.61a5.5,5.5,0,1,1,0,7.78A5.5,5.5,0,0,1,162.86,167.87Z" transform="translate(0)"/></svg>
