<svg xmlns="http://www.w3.org/2000/svg" viewBox="0 0 304.29 402.06"><defs><style>.cls-1{fill:#612bb4;}</style></defs><g id="Layer_2" data-name="Layer 2"><g id="Layer_1-2" data-name="Layer 1"><g id="ADDRESS"><path class="cls-1" d="M.06,154.63c-.59-22.88,3.06-45,12-66.17C26.39,54.21,51,29.9,84.56,14.4,110.18,2.55,137.31-1.69,165.22.59c40.87,3.35,76.07,19.21,103.58,50.3,16.93,19.12,27,41.66,32.1,66.57,3.7,18.07,3.94,36.37,2.76,54.6a278.72,278.72,0,0,1-32.61,114.59,281.75,281.75,0,0,1-42.83,59.84,285.71,285.71,0,0,1-66.57,52.76c-6.56,3.78-12.7,3.73-19.27,0a275.16,275.16,0,0,1-63.57-49.4C40.37,309.47,15.52,262,4.94,207.09A251.74,251.74,0,0,1,.06,154.63Zm30.47,1.78c.17,2.41.38,6.89.83,11.35.93,9.41,1.52,18.88,3.06,28.19,6.92,42,23.77,79.73,50,113.22a253.26,253.26,0,0,0,62.87,57.07c3.09,2,5.45,2.44,8.93.21a253.62,253.62,0,0,0,69.33-65.24,246,246,0,0,0,38.27-79,263.48,263.48,0,0,0,9.07-55.92c.91-16.06.24-31.91-3.47-47.5-7.1-29.84-23.38-53.34-49.79-69.36-23.62-14.32-49.33-19.8-76.83-18a128.83,128.83,0,0,0-41.59,9.38C76.81,51,57.69,67.28,45,90.84,34.35,110.71,30.94,132.16,30.53,156.41Z" transform="translate(0 0)"/><path class="cls-1" d="M57.94,154.26c-.37-51.59,43.22-94.44,94.78-94.3,50.41.14,94.46,41.81,94.33,94.87-.12,51.82-42.94,94.62-94.93,94.34C98.32,248.87,57.27,204.49,57.94,154.26Zm157.93.13c.86-30-23.16-63.46-63.77-63.48-34.43,0-63.15,26.42-63.3,63.55-.15,38.39,31.13,63.62,63.65,63.71C187.12,218.27,216.69,189.19,215.87,154.39Z" transform="translate(0 0)"/></g></g></g></svg>