<svg xmlns="http://www.w3.org/2000/svg" viewBox="0 0 269.76 526.74"><path d="M38.19,496.42c-22.62-23-33.42-48.86-33.47-79.08-.08-43.74,0-87.48,0-131.22,0-24.46,7.11-46.66,21.79-66.06,19.12-25.25,44.76-40,76.38-42.74,16.68-1.44,33.56-.73,50.35-.73a127.22,127.22,0,0,1,17.88,1.26,104.57,104.57,0,0,1,53.8,24.22c26.09,22.11,38.86,50.45,39,84.41.23,43.41,0,86.82.07,130.23,0,23.88-6.68,45.77-20.91,64.84-20.9,28-49.08,43.2-84.18,44.6-15.45.61-30.93.65-46.4.53a105.19,105.19,0,0,1-64-21.68C44.39,501.91,40.58,498.43,38.19,496.42ZM208.91,471c13.77-13.71,21.61-30.79,21.73-50.81.29-45.72.38-91.44,0-137.15-.33-39.72-33.71-72.73-73.46-73.26q-23.19-.31-46.38.15c-39.92.81-73.2,34.13-73.47,74-.31,45.38-.17,90.77,0,136.15.06,17.62,6.23,33.32,17.54,46.64,15.1,17.81,34.62,27,58.08,27.3,13.8.16,27.6.12,41.4,0C175.41,493.78,193.57,486.47,208.91,471Z"/><path d="M7,45.49a188.09,188.09,0,0,1,34.9-23.08A197,197,0,0,1,142.06.19c38.27,1.62,73.39,13.15,105,35q7.57,5.22,14.81,10.94c7.68,6.08,9.84,14,6.14,21.55-5,10.23-17.27,12.48-26.56,4.81a159.78,159.78,0,0,0-57.65-30.73Q107.34,19.59,40.07,62.54c-4.75,3-9.19,6.54-13.8,9.79-7.65,5.39-16.36,4.13-22.63-3.14a15.88,15.88,0,0,1,1.7-22C5.72,46.86,6.05,46.49,7,45.49Z"/><path d="M77.63,129.15c-8.46-7.21-6.12-20.7,2.51-26.07,34.68-21.62,69.65-22.4,105.05-2,6,3.47,9.78,8.46,9.49,15.76-.41,10.25-12,20.57-24.8,14A100.36,100.36,0,0,0,154.45,124c-17.65-5.55-34.77-3.77-51.17,4.8-1.77.92-3.49,1.92-5.22,2.91C90.72,136,83.54,135.05,77.63,129.15Z"/><path d="M121,299.65c-1.75-1.53-3.28-5.46-3.3-10,0-10.64-.15-21.28,0-31.92a16.22,16.22,0,0,1,16.51-16.42,15.84,15.84,0,0,1,16.21,16.06q.28,16.46,0,32.91c-.15,7-3.72,12-10.26,14.54S127.75,306.08,121,299.65Z"/></svg>
