<svg xmlns="http://www.w3.org/2000/svg" viewBox="0 0 320.15 384.13"><path d="M159.75,384q-70.6,0-141.21,0a28.76,28.76,0,0,1-6.44-.43c-7.27-1.69-12-7.83-12-15.74-.08-16.47,0-32.94,0-49.4,0-11.81-.22-23.63.06-35.43,1.19-49.48,36-95.83,86.77-105.58a88.52,88.52,0,0,1,16.33-1.51c37.92-.13,75.85-.22,113.77,0,24.64.13,46.12,9.1,64.5,25.23C303,220,315.42,243.87,319.12,272.23a90.86,90.86,0,0,1,.87,11.41c.07,27.77-.15,55.55.16,83.32A16.82,16.82,0,0,1,303,384.13C255.22,383.9,207.48,384,159.75,384Zm-.19-32.53h122.2c6.21,0,5.84.6,5.85-6,0-19.29,0-38.58,0-57.86a82.66,82.66,0,0,0-6.06-31.59c-11.43-28.12-36.79-48-69.94-47.74-32.92.27-65.84,0-98.76.1-5,0-10,.34-14.9.76-14.62,1.25-27.16,7.36-38,17-18,15.89-26.5,36.38-27.19,60-.61,20.6-.09,41.23-.19,61.85,0,2.91,1.09,3.86,3.8,3.59a33.84,33.84,0,0,1,3.49,0Z"/><path d="M240.2,80.29c.88,43.63-36.47,80.28-80,80.36-43.75.09-80.6-36.75-80.49-80.54C79.85,36.64,116.48,0,160.15,0S241.05,36.69,240.2,80.29Zm-32.53-.15c-1.06-27.34-21.1-47.42-47.92-47.22-27.05.21-47.06,20.58-47.09,47.34,0,27.09,20.38,47.51,47.46,47.47S206.86,107.11,207.67,80.14Z"/></svg>
