<svg xmlns="http://www.w3.org/2000/svg" viewBox="0 0 186.81 186.91"><path d="M163.17,79.06c0,18.83-4.48,33.66-13.24,47.21-.88,1.36-.89,1.37.28,2.54q15.78,15.8,31.58,31.56a16.11,16.11,0,0,1,4.7,8.25,15,15,0,0,1-6.63,15.78c-6.31,4-13.74,3.15-19.15-2.24Q145,166.55,129.4,150.86c-1.77-1.77-1.76-1.76-4-.38a81.8,81.8,0,0,1-30.37,11.63A81.81,81.81,0,0,1,7.94,116.77a81.42,81.42,0,0,1,15.6-92.45A81,81,0,0,1,51.9,5.6,83.72,83.72,0,0,1,72.5.52a76.18,76.18,0,0,1,14-.35,82.27,82.27,0,0,1,28,6.76A80.88,80.88,0,0,1,141.4,26.14a80.16,80.16,0,0,1,18.82,33.68A75.53,75.53,0,0,1,163.17,79.06ZM81.58,135.43c29.68.3,54-24.22,53.87-53.91a53.86,53.86,0,0,0-107.71.14C27.77,111.43,52.08,135.68,81.58,135.43Z"/></svg>
