<svg xmlns="http://www.w3.org/2000/svg" viewBox="0 0 364.09 364.09"><rect x="173.88" y="91.53" width="134.84" height="4" transform="translate(11.39 212.33) rotate(-48.51)"/><rect x="204.36" y="121.03" width="134.84" height="4" transform="translate(-13.29 210.98) rotate(-41.5)"/><path d="M107.9,255.76a6.94,6.94,0,0,0-9.83,0L89,264.82a7.08,7.08,0,0,0-1.24,1.68,4.85,4.85,0,0,0-.29.61,7,7,0,0,0,6.45,9.58,6.89,6.89,0,0,0,2.61-.51,5.88,5.88,0,0,0,.62-.29,6.68,6.68,0,0,0,1.69-1.24l9.06-9.06A7,7,0,0,0,107.9,255.76ZM95.8,273.3a4,4,0,0,1-5.44-5.44,4.19,4.19,0,0,1,.72-1,4,4,0,0,1,5.7,5.7A3.92,3.92,0,0,1,95.8,273.3Zm5-4.72a7,7,0,0,0-5.7-5.7l5.06-5.06a4,4,0,1,1,5.69,5.7Z" transform="translate(0 0)"/><path d="M170,193.69a9.5,9.5,0,1,0,0,13.45A9.5,9.5,0,0,0,170,193.69ZM159.36,204.3a5.5,5.5,0,1,1,7.78,0A5.5,5.5,0,0,1,159.36,204.3Z" transform="translate(0 0)"/><path d="M48.6,315.49a20.78,20.78,0,1,0,0,29.39A20.77,20.77,0,0,0,48.6,315.49ZM24.87,339.22a12.78,12.78,0,1,1,18.07,0A12.8,12.8,0,0,1,24.87,339.22Z" transform="translate(0 0)"/><path d="M363.09,78.83a3.28,3.28,0,0,0-2-1l-21.6-2.24a12.79,12.79,0,0,0-9.83,3.15l-99.8,88.52A15.12,15.12,0,0,1,218,171a7,7,0,0,0-5.52,1.73l-1.57,1.38L190,153.21l1.39-1.57a7,7,0,0,0,1.72-5.53,15.14,15.14,0,0,1,3.68-11.85l88.52-99.8a12.8,12.8,0,0,0,3.15-9.83L286.21,3a3.28,3.28,0,0,0-.95-2,3.38,3.38,0,0,0-4.93.14L8.11,308.08a32.18,32.18,0,0,0,1.3,44.09c.41.41.85.83,1.29,1.23s.81.87,1.22,1.28A32.18,32.18,0,0,0,56,356L363,83.76A3.38,3.38,0,0,0,363.09,78.83ZM207.88,176.75l-90.8,80.54a6.07,6.07,0,0,0-1.82,6.2,6,6,0,0,1-1.8,6.13l-12,10.61a6,6,0,0,1-5.85,1.21l-1.08-.36A5.76,5.76,0,0,0,89,282.22l-30.49,27-3.65-3.65,27-30.49A5.76,5.76,0,0,0,83,269.52l-.36-1.08a6,6,0,0,1,1.21-5.85l10.6-12a6,6,0,0,1,6.14-1.79,6.08,6.08,0,0,0,6.2-1.82l80.54-90.8ZM50.7,350a24.13,24.13,0,0,1-20.23,5.72,25.64,25.64,0,0,1-14.25-6.56c-.3-.27-.6-.55-.88-.83l-.42-.43a26,26,0,0,1,.41-36.28c.57-.56,1.16-1.1,1.76-1.6L279.34,14.31l1.16,11.15a4.84,4.84,0,0,1-1.19,3.69L190.79,129a23.07,23.07,0,0,0-5.67,17.7l-83.54,94.19a14,14,0,0,0-6.52.31H95a14.26,14.26,0,0,0-6.52,4.15l-10.61,12A14,14,0,0,0,75,270.8L43.76,306a26,26,0,0,1,6.65,4.08l3.34,3.34h0a25.58,25.58,0,0,1,4.12,7l35.43-31.42a14,14,0,0,0,13.52-2.86l12-10.61a14.2,14.2,0,0,0,4.16-6.52V269a14.24,14.24,0,0,0,.31-6.52L217.44,179a23.13,23.13,0,0,0,17.7-5.67l99.8-88.52a4.8,4.8,0,0,1,3.69-1.19l11.15,1.15Z" transform="translate(0 0)"/></svg>
