<svg xmlns="http://www.w3.org/2000/svg" viewBox="0 0 101.35 456.41"><path d="M50.67,302.17A30.52,30.52,0,0,0,81.2,271.65V47.74a30.53,30.53,0,0,0-61,0V271.65A30.52,30.52,0,0,0,50.67,302.17ZM24.7,47.74a26,26,0,1,1,52,0V271.65a26,26,0,1,1-51.95,0Z"/><path d="M100.93,326.43l-4.29-40.49A47.87,47.87,0,0,0,98.15,274V47.48a47.48,47.48,0,1,0-94.95,0V274A47.56,47.56,0,0,0,5,287L.49,326.08A74.18,74.18,0,0,0,0,334.64V445.16a11.25,11.25,0,0,0,11.25,11.25H90.1a11.25,11.25,0,0,0,11.25-11.25V334.29A73.63,73.63,0,0,0,100.93,326.43ZM11.2,47.48a39.48,39.48,0,1,1,79,0V274a39.48,39.48,0,1,1-78.95,0Zm39.47,274a47.43,47.43,0,0,0,39.46-21.06L93,327.27c.08.75.12,1.5.17,2.25H8.22c.07-.84.12-1.68.22-2.52l3-26.22A47.41,47.41,0,0,0,50.67,321.48Zm42.68,12.81v89.54H8V334.64c0-.37,0-.75,0-1.12h85.3C93.33,333.78,93.35,334,93.35,334.29ZM90.1,448.41H11.25A3.25,3.25,0,0,1,8,445.16V427.83H93.35v17.33A3.25,3.25,0,0,1,90.1,448.41Z"/></svg>
